<svg xmlns="http://www.w3.org/2000/svg" width="1200" height="1380"><rect width="1200" height="1380" fill="#F5F3EB"/><text x="64" y="94" font-family="sans-serif" font-weight="700" font-size="46" fill="#17243C">citylit</text><text x="64" y="174" font-family="monospace" font-size="17" fill="#526381">BRAND FIELD NOTES / KHWEZI / DAY &amp; NIGHT</text><text x="64" y="275" font-family="sans-serif" font-size="78" font-weight="800" fill="#17243C" textLength="1050" lengthAdjust="spacingAndGlyphs">EVERY CITY HAS A SPARK.</text><text x="65" y="332" font-family="sans-serif" font-size="26" fill="#526381">Small adventures. A little wonder. A whole country to discover.</text><svg x="70" y="365" width="285" height="330" viewBox="0 0 180 200" fill="none"><ellipse cx="92" cy="184" rx="43" ry="7" fill="currentColor" opacity=".08"></ellipse><g class="khwezi-body"><path d="M120 151Q156 160 147 120Q147 106 138 109" stroke="#17243C" stroke-width="9" stroke-linecap="round"></path><g class="khwezi-ear khwezi-ear-left"><path d="M64 96 45 43 50 14 66 29 78 92Z" fill="#F3EFE3"></path><path d="m45 43 5-29 16 15-9 22Z" fill="#17243C"></path><path d="m60 53 10 38-8-3-10-34Z" fill="#E9B2BA"></path></g><g class="khwezi-ear khwezi-ear-right"><path d="m102 92 9-67 15-12 9 27-20 57Z" fill="#F3EFE3"></path><path d="m111 25 15-12 9 27-13 9Z" fill="#17243C"></path><path d="m119 56-9 34 8-2 12-33Z" fill="#E9B2BA"></path></g><path d="m63 135-9 33 16 14 23-6 23 6 13-14-10-33Z" fill="#DED8CE"></path><path d="m67 133-8 21 34 18 29-21-6-20Z" fill="#F3EFE3"></path><path d="m53 172 17-6 13 13-5 10H48l-3-7Z" fill="#17243C"></path><path d="m111 166 18 6 8 10-3 7h-32l-4-10Z" fill="#17243C"></path><path d="m49 99 20-22 41-1 24 20-2 28-23 21-38-1-25-21Z" fill="#F3EFE3"></path><path d="m49 99-3 24 25 21 20-2-27-17Z" fill="#DED8CE"></path><path d="m110 76 24 20-2 28-23 21 10-33Z" fill="#E5DED4"></path><path d="m68 137-15 8 1 15 13-2 11-13Z" fill="#F3EFE3"></path><path d="m113 137 16 8-1 15-13-2-11-13Z" fill="#F3EFE3"></path><g class="khwezi-eyes"><ellipse cx="72" cy="109" rx="6" ry="8" fill="#17243C"></ellipse><ellipse cx="108" cy="109" rx="6" ry="8" fill="#17243C"></ellipse><circle cx="74" cy="107" r="2" fill="white"></circle><circle cx="110" cy="107" r="2" fill="white"></circle></g><path d="m85 123 6-5 6 5-6 6Z" fill="#6558F5"></path><path d="M83 132q8 7 16 0" stroke="#17243C" stroke-width="2.5" stroke-linecap="round"></path><path d="m90 84 7 8-7 8-7-8Z" fill="#6558F5"></path><g class="khwezi-prop"><path d="m68 141 17-5 13 6 16-5v25l-16 5-13-6-17 5Z" fill="#7B82C7"></path><path d="m85 136 13 6v25l-13-6Z" fill="#C3D2ED"></path><path d="m73 148 13-3 8 6 14-5" stroke="#F3EFE3" stroke-width="2"></path></g></g></svg><text x="390" y="458" font-family="sans-serif" font-weight="700" font-size="50" fill="#17243C">MEET KHWEZI.</text><text x="390" y="515" font-family="sans-serif" font-size="22" fill="#526381">A curious springhare. Enormous ears. A pocket of sparks.</text><text x="390" y="559" font-family="sans-serif" font-size="22" fill="#526381">Ivory, ink and a luminous diamond of electric blue.</text><rect x="390" y="601" width="125" height="65" rx="14" fill="#F3EFE3" stroke="#ACB3BC"/><text x="395" y="692" font-family="monospace" font-size="15" fill="#526381">#F3EFE3</text><rect x="532" y="601" width="125" height="65" rx="14" fill="#17243C" stroke="#ACB3BC"/><text x="537" y="692" font-family="monospace" font-size="15" fill="#526381">#17243C</text><rect x="674" y="601" width="125" height="65" rx="14" fill="#6558F5" stroke="#ACB3BC"/><text x="679" y="692" font-family="monospace" font-size="15" fill="#526381">#6558F5</text><rect x="816" y="601" width="125" height="65" rx="14" fill="#E9B2BA" stroke="#ACB3BC"/><text x="821" y="692" font-family="monospace" font-size="15" fill="#526381">#E9B2BA</text><rect x="958" y="601" width="125" height="65" rx="14" fill="#F3C975" stroke="#ACB3BC"/><text x="963" y="692" font-family="monospace" font-size="15" fill="#526381">#F3C975</text><rect x="64" y="746" width="516" height="232" rx="24" fill="#FFFDF8" stroke="#D3D7DB"/><svg x="85" y="765" width="150" height="170" viewBox="0 0 180 200" fill="none"><ellipse cx="92" cy="184" rx="43" ry="7" fill="currentColor" opacity=".08"></ellipse><g class="khwezi-body"><path d="M120 151Q156 160 147 120Q147 106 138 109" stroke="#17243C" stroke-width="9" stroke-linecap="round"></path><g class="khwezi-ear khwezi-ear-left"><path d="M64 96 45 43 50 14 66 29 78 92Z" fill="#F3EFE3"></path><path d="m45 43 5-29 16 15-9 22Z" fill="#17243C"></path><path d="m60 53 10 38-8-3-10-34Z" fill="#E9B2BA"></path></g><g class="khwezi-ear khwezi-ear-right"><path d="m102 92 9-67 15-12 9 27-20 57Z" fill="#F3EFE3"></path><path d="m111 25 15-12 9 27-13 9Z" fill="#17243C"></path><path d="m119 56-9 34 8-2 12-33Z" fill="#E9B2BA"></path></g><path d="m63 135-9 33 16 14 23-6 23 6 13-14-10-33Z" fill="#DED8CE"></path><path d="m67 133-8 21 34 18 29-21-6-20Z" fill="#F3EFE3"></path><path d="m53 172 17-6 13 13-5 10H48l-3-7Z" fill="#17243C"></path><path d="m111 166 18 6 8 10-3 7h-32l-4-10Z" fill="#17243C"></path><path d="m49 99 20-22 41-1 24 20-2 28-23 21-38-1-25-21Z" fill="#F3EFE3"></path><path d="m49 99-3 24 25 21 20-2-27-17Z" fill="#DED8CE"></path><path d="m110 76 24 20-2 28-23 21 10-33Z" fill="#E5DED4"></path><path d="m68 137-15 8 1 15 13-2 11-13Z" fill="#F3EFE3"></path><path d="m113 137 16 8-1 15-13-2-11-13Z" fill="#F3EFE3"></path><g class="khwezi-eyes"><ellipse cx="72" cy="109" rx="6" ry="8" fill="#17243C"></ellipse><ellipse cx="108" cy="109" rx="6" ry="8" fill="#17243C"></ellipse><circle cx="74" cy="107" r="2" fill="white"></circle><circle cx="110" cy="107" r="2" fill="white"></circle></g><path d="m85 123 6-5 6 5-6 6Z" fill="#6558F5"></path><path d="M83 132q8 7 16 0" stroke="#17243C" stroke-width="2.5" stroke-linecap="round"></path><path d="m90 84 7 8-7 8-7-8Z" fill="#6558F5"></path><g class="khwezi-prop"><path d="m68 141 17-5 13 6 16-5v25l-16 5-13-6-17 5Z" fill="#7B82C7"></path><path d="m85 136 13 6v25l-13-6Z" fill="#C3D2ED"></path><path d="m73 148 13-3 8 6 14-5" stroke="#F3EFE3" stroke-width="2"></path></g></g></svg><text x="260" y="846" font-family="sans-serif" font-weight="700" font-size="25" fill="#17243C">Follow a little curiosity.</text><text x="260" y="891" font-family="sans-serif" font-size="18" fill="#526381">Warm daylight. A new adventure.</text><rect x="600" y="746" width="536" height="232" rx="24" fill="#091323"/><svg x="620" y="765" width="150" height="170" viewBox="0 0 180 200" fill="none"><ellipse cx="92" cy="184" rx="43" ry="7" fill="currentColor" opacity=".08"></ellipse><g class="khwezi-body"><path d="M120 151Q156 160 147 120Q147 106 138 109" stroke="#17243C" stroke-width="9" stroke-linecap="round"></path><g class="khwezi-ear khwezi-ear-left"><path d="M64 96 45 43 50 14 66 29 78 92Z" fill="#F3EFE3"></path><path d="m45 43 5-29 16 15-9 22Z" fill="#17243C"></path><path d="m60 53 10 38-8-3-10-34Z" fill="#E9B2BA"></path></g><g class="khwezi-ear khwezi-ear-right"><path d="m102 92 9-67 15-12 9 27-20 57Z" fill="#F3EFE3"></path><path d="m111 25 15-12 9 27-13 9Z" fill="#17243C"></path><path d="m119 56-9 34 8-2 12-33Z" fill="#E9B2BA"></path></g><path d="m63 135-9 33 16 14 23-6 23 6 13-14-10-33Z" fill="#DED8CE"></path><path d="m67 133-8 21 34 18 29-21-6-20Z" fill="#F3EFE3"></path><path d="m53 172 17-6 13 13-5 10H48l-3-7Z" fill="#17243C"></path><path d="m111 166 18 6 8 10-3 7h-32l-4-10Z" fill="#17243C"></path><path d="m49 99 20-22 41-1 24 20-2 28-23 21-38-1-25-21Z" fill="#F3EFE3"></path><path d="m49 99-3 24 25 21 20-2-27-17Z" fill="#DED8CE"></path><path d="m110 76 24 20-2 28-23 21 10-33Z" fill="#E5DED4"></path><path d="m68 137-15 8 1 15 13-2 11-13Z" fill="#F3EFE3"></path><path d="m113 137 16 8-1 15-13-2-11-13Z" fill="#F3EFE3"></path><g class="khwezi-eyes" transform="translate(0 94) scale(1 .14)"><ellipse cx="72" cy="109" rx="6" ry="8" fill="#17243C"></ellipse><ellipse cx="108" cy="109" rx="6" ry="8" fill="#17243C"></ellipse><circle cx="74" cy="107" r="2" fill="white"></circle><circle cx="110" cy="107" r="2" fill="white"></circle></g><path d="m85 123 6-5 6 5-6 6Z" fill="#6558F5"></path><path d="M83 132q8 7 16 0" stroke="#17243C" stroke-width="2.5" stroke-linecap="round"></path><path d="m90 84 7 8-7 8-7-8Z" fill="#6558F5"></path></g><g class="khwezi-lantern"><path d="m141 154 10-9 10 9Z" fill="#17243C"></path><path d="M143 154h16v23h-16Z" fill="#F3C975"></path><path d="M143 154h16v23h-16ZM151 154v23" stroke="#17243C" stroke-width="3"></path><path d="M145 177h12" stroke="#17243C" stroke-width="4"></path></g></svg><text x="793" y="846" font-family="sans-serif" font-weight="700" font-size="25" fill="#F3EFE3"><tspan x="793" dy="0">Your sparks travel</tspan><tspan x="793" dy="32">with you.</tspan></text><text x="793" y="923" font-family="sans-serif" font-size="18" fill="#BBC3D5">A small light to follow.</text><svg x="82" y="1000" width="145" height="170" viewBox="0 0 180 200" fill="none"><ellipse cx="92" cy="184" rx="43" ry="7" fill="currentColor" opacity=".08"></ellipse><g class="khwezi-body"><path d="M120 151Q156 160 147 120Q147 106 138 109" stroke="#17243C" stroke-width="9" stroke-linecap="round"></path><g class="khwezi-ear khwezi-ear-left"><path d="M64 96 45 43 50 14 66 29 78 92Z" fill="#F3EFE3"></path><path d="m45 43 5-29 16 15-9 22Z" fill="#17243C"></path><path d="m60 53 10 38-8-3-10-34Z" fill="#E9B2BA"></path></g><g class="khwezi-ear khwezi-ear-right"><path d="m102 92 9-67 15-12 9 27-20 57Z" fill="#F3EFE3"></path><path d="m111 25 15-12 9 27-13 9Z" fill="#17243C"></path><path d="m119 56-9 34 8-2 12-33Z" fill="#E9B2BA"></path></g><path d="m63 135-9 33 16 14 23-6 23 6 13-14-10-33Z" fill="#DED8CE"></path><path d="m67 133-8 21 34 18 29-21-6-20Z" fill="#F3EFE3"></path><path d="m53 172 17-6 13 13-5 10H48l-3-7Z" fill="#17243C"></path><path d="m111 166 18 6 8 10-3 7h-32l-4-10Z" fill="#17243C"></path><path d="m49 99 20-22 41-1 24 20-2 28-23 21-38-1-25-21Z" fill="#F3EFE3"></path><path d="m49 99-3 24 25 21 20-2-27-17Z" fill="#DED8CE"></path><path d="m110 76 24 20-2 28-23 21 10-33Z" fill="#E5DED4"></path><path d="m68 137-15 8 1 15 13-2 11-13Z" fill="#F3EFE3"></path><path d="m113 137 16 8-1 15-13-2-11-13Z" fill="#F3EFE3"></path><g class="khwezi-eyes"><ellipse cx="72" cy="109" rx="6" ry="8" fill="#17243C"></ellipse><ellipse cx="108" cy="109" rx="6" ry="8" fill="#17243C"></ellipse><circle cx="74" cy="107" r="2" fill="white"></circle><circle cx="110" cy="107" r="2" fill="white"></circle></g><path d="m85 123 6-5 6 5-6 6Z" fill="#6558F5"></path><path d="M83 132q8 7 16 0" stroke="#17243C" stroke-width="2.5" stroke-linecap="round"></path><path d="m90 84 7 8-7 8-7-8Z" fill="#6558F5"></path><g class="khwezi-prop"><path d="m68 141 17-5 13 6 16-5v25l-16 5-13-6-17 5Z" fill="#7B82C7"></path><path d="m85 136 13 6v25l-13-6Z" fill="#C3D2ED"></path><path d="m73 148 13-3 8 6 14-5" stroke="#F3EFE3" stroke-width="2"></path></g></g></svg><text x="74" y="1228" font-family="sans-serif" font-size="25" font-weight="700" fill="#17243C">A friendly invitation.</text><svg x="442" y="1000" width="145" height="170" viewBox="0 0 180 200" fill="none"><ellipse cx="92" cy="184" rx="43" ry="7" fill="currentColor" opacity=".08"></ellipse><g class="khwezi-body"><path d="M120 151Q156 160 147 120Q147 106 138 109" stroke="#17243C" stroke-width="9" stroke-linecap="round"></path><g class="khwezi-ear khwezi-ear-left"><path d="M64 96 45 43 50 14 66 29 78 92Z" fill="#F3EFE3"></path><path d="m45 43 5-29 16 15-9 22Z" fill="#17243C"></path><path d="m60 53 10 38-8-3-10-34Z" fill="#E9B2BA"></path></g><g class="khwezi-ear khwezi-ear-right"><path d="m102 92 9-67 15-12 9 27-20 57Z" fill="#F3EFE3"></path><path d="m111 25 15-12 9 27-13 9Z" fill="#17243C"></path><path d="m119 56-9 34 8-2 12-33Z" fill="#E9B2BA"></path></g><path d="m63 135-9 33 16 14 23-6 23 6 13-14-10-33Z" fill="#DED8CE"></path><path d="m67 133-8 21 34 18 29-21-6-20Z" fill="#F3EFE3"></path><path d="m53 172 17-6 13 13-5 10H48l-3-7Z" fill="#17243C"></path><path d="m111 166 18 6 8 10-3 7h-32l-4-10Z" fill="#17243C"></path><path d="m49 99 20-22 41-1 24 20-2 28-23 21-38-1-25-21Z" fill="#F3EFE3"></path><path d="m49 99-3 24 25 21 20-2-27-17Z" fill="#DED8CE"></path><path d="m110 76 24 20-2 28-23 21 10-33Z" fill="#E5DED4"></path><path d="m68 137-15 8 1 15 13-2 11-13Z" fill="#F3EFE3"></path><path d="m113 137 16 8-1 15-13-2-11-13Z" fill="#F3EFE3"></path><g class="khwezi-eyes"><ellipse cx="72" cy="109" rx="6" ry="8" fill="#17243C"></ellipse><ellipse cx="108" cy="109" rx="6" ry="8" fill="#17243C"></ellipse><circle cx="74" cy="107" r="2" fill="white"></circle><circle cx="110" cy="107" r="2" fill="white"></circle></g><path d="m85 123 6-5 6 5-6 6Z" fill="#6558F5"></path><path d="M83 132q8 7 16 0" stroke="#17243C" stroke-width="2.5" stroke-linecap="round"></path><path d="m90 84 7 8-7 8-7-8Z" fill="#6558F5"></path></g><g class="khwezi-orbit-spark"><path d="m145 66 9 13-9 13-9-13Z" fill="#6558F5"></path><path d="m145 66 9 13h-9Z" fill="#C7C0FF"></path></g></svg><text x="434" y="1228" font-family="sans-serif" font-size="25" font-weight="700" fill="#17243C">A spark for later.</text><svg x="802" y="1000" width="145" height="170" viewBox="0 0 180 200" fill="none"><ellipse cx="92" cy="184" rx="43" ry="7" fill="currentColor" opacity=".08"></ellipse><g class="khwezi-body"><path d="M120 151Q156 160 147 120Q147 106 138 109" stroke="#17243C" stroke-width="9" stroke-linecap="round"></path><g class="khwezi-ear khwezi-ear-left"><path d="M64 96 45 43 50 14 66 29 78 92Z" fill="#F3EFE3"></path><path d="m45 43 5-29 16 15-9 22Z" fill="#17243C"></path><path d="m60 53 10 38-8-3-10-34Z" fill="#E9B2BA"></path></g><g class="khwezi-ear khwezi-ear-right"><path d="m102 92 9-67 15-12 9 27-20 57Z" fill="#F3EFE3"></path><path d="m111 25 15-12 9 27-13 9Z" fill="#17243C"></path><path d="m119 56-9 34 8-2 12-33Z" fill="#E9B2BA"></path></g><path d="m63 135-9 33 16 14 23-6 23 6 13-14-10-33Z" fill="#DED8CE"></path><path d="m67 133-8 21 34 18 29-21-6-20Z" fill="#F3EFE3"></path><path d="m53 172 17-6 13 13-5 10H48l-3-7Z" fill="#17243C"></path><path d="m111 166 18 6 8 10-3 7h-32l-4-10Z" fill="#17243C"></path><path d="m49 99 20-22 41-1 24 20-2 28-23 21-38-1-25-21Z" fill="#F3EFE3"></path><path d="m49 99-3 24 25 21 20-2-27-17Z" fill="#DED8CE"></path><path d="m110 76 24 20-2 28-23 21 10-33Z" fill="#E5DED4"></path><path d="m68 137-15 8 1 15 13-2 11-13Z" fill="#F3EFE3"></path><path d="m113 137 16 8-1 15-13-2-11-13Z" fill="#F3EFE3"></path><g class="khwezi-eyes"><ellipse cx="72" cy="109" rx="6" ry="8" fill="#17243C"></ellipse><ellipse cx="108" cy="109" rx="6" ry="8" fill="#17243C"></ellipse><circle cx="74" cy="107" r="2" fill="white"></circle><circle cx="110" cy="107" r="2" fill="white"></circle></g><path d="m85 123 6-5 6 5-6 6Z" fill="#6558F5"></path><path d="M83 132q8 7 16 0" stroke="#17243C" stroke-width="2.5" stroke-linecap="round"></path><path d="m90 84 7 8-7 8-7-8Z" fill="#6558F5"></path><g class="khwezi-prop"><circle cx="122" cy="112" r="17" fill="#8DC6E8" fill-opacity=".3" stroke="#6558F5" stroke-width="5"></circle><path d="m134 126 12 14" stroke="#17243C" stroke-width="7" stroke-linecap="round"></path></g></g></svg><text x="794" y="1228" font-family="sans-serif" font-size="25" font-weight="700" fill="#17243C">Somewhere worth finding.</text><text x="64" y="1322" font-family="monospace" font-size="16" fill="#526381">CURIOUS / WARM / SLIGHTLY SURREAL · citylit.vercel.app/brand</text></svg>